<svg xmlns="http://www.w3.org/2000/svg" viewBox="0 0 800 500" preserveAspectRatio="xMidYMid slice">
  <rect width="800" height="500" fill="#111"></rect>

  
  <g transform="translate(260 60)">
    <rect x="0" y="0" width="280" height="400" rx="36" fill="#faf6ea" stroke="#FDFE53" stroke-width="2"></rect>
    
    <rect x="120" y="14" width="40" height="6" rx="3" fill="#111" opacity="0.5"></rect>
    
    <text x="24" y="64" font-family="Inter, sans-serif" font-size="10" fill="#111" opacity="0.5" letter-spacing="2">SAFE TO SPEND</text>
    <text x="24" y="110" font-family="Instrument Serif, serif" font-size="56" fill="#111" font-style="italic">$4,210</text>
    <text x="24" y="132" font-family="Inter, sans-serif" font-size="11" fill="#111" opacity="0.5">smoothed across 14 days</text>

    
    <g transform="translate(24 150)">
      <rect x="0" y="0" width="232" height="80" rx="10" fill="#f6f1e3"></rect>
      
      <polyline points="0,60 20,55 40,20 60,45 80,42 100,12 120,40 140,38 160,30 180,28 200,8 220,32 232,30" fill="none" stroke="#111" stroke-width="1.5" opacity="0.4"></polyline>
      
      <path d="M0 50 Q60 38, 116 36 T232 30" fill="none" stroke="#FDFE53" stroke-width="3" stroke-linecap="round"></path>
      <circle cx="232" cy="30" r="5" fill="#FDFE53" stroke="#111" stroke-width="1.5"></circle>
    </g>

    
    <g transform="translate(24 250)" font-family="Inter, sans-serif" font-size="11" fill="#111">
      <text x="0" y="0" opacity="0.5" font-size="9" letter-spacing="2">INCOME EVENTS</text>
      <line x1="0" y1="14" x2="232" y2="14" stroke="#111" opacity="0.15"></line>
      <text x="0" y="34">Stripe payout</text>
      <text x="232" y="34" text-anchor="end" font-weight="600">+ $2,140.00</text>
      <line x1="0" y1="46" x2="232" y2="46" stroke="#111" opacity="0.15"></line>
      <text x="0" y="66">Upwork · contract</text>
      <text x="232" y="66" text-anchor="end" font-weight="600">+ $890.00</text>
      <line x1="0" y1="78" x2="232" y2="78" stroke="#111" opacity="0.15"></line>
      <text x="0" y="98">Wise transfer (EUR)</text>
      <text x="232" y="98" text-anchor="end" font-weight="600">+ €1,200</text>
      <line x1="0" y1="110" x2="232" y2="110" stroke="#111" opacity="0.15"></line>
    </g>
  </g>

  
  <text x="60" y="120" font-family="Instrument Serif, serif" font-size="42" font-style="italic" fill="#FDFE53">Brightline</text>
  <text x="60" y="150" font-family="Inter, sans-serif" font-size="13" fill="#faf6ea" opacity="0.8">banking, smoothed.</text>
  <line x1="60" y1="172" x2="180" y2="172" stroke="#FDFE53" stroke-width="2"></line>

  
  <g transform="translate(670 380)" stroke="#FDFE53" stroke-width="2" stroke-linecap="round" fill="none">
    <path d="M0 0 m-22 0 a22 22 0 1 1 44 0 a18 18 0 1 1 -36 0 a14 14 0 1 1 28 0 a10 10 0 1 1 -20 0"></path>
  </g>
</svg>