<svg xmlns="http://www.w3.org/2000/svg" viewBox="0 0 800 500" preserveAspectRatio="xMidYMid slice">
  <rect width="800" height="500" fill="#FF4E3B"></rect>

  
  <g transform="translate(280 50)">
    
    <path d="M0 30 L240 30 L240 410 Q120 430 0 410 Z" fill="#faf6ea" stroke="#111" stroke-width="2"></path>
    
    <path d="M-6 30 L246 30 L240 56 L0 56 Z" fill="#111"></path>
    
    <rect x="22" y="80" width="196" height="120" rx="6" fill="#FDFE53" stroke="#111" stroke-width="1.5"></rect>
    <text x="120" y="106" text-anchor="middle" font-family="Inter, sans-serif" font-size="10" fill="#111" letter-spacing="3">WILDWOOD CO.</text>
    <line x1="40" y1="116" x2="200" y2="116" stroke="#111"></line>
    <text x="120" y="148" text-anchor="middle" font-family="Instrument Serif, serif" font-size="32" font-style="italic" fill="#111">House</text>
    <text x="120" y="178" text-anchor="middle" font-family="Instrument Serif, serif" font-size="32" font-style="italic" fill="#111">Blend</text>
    <text x="120" y="194" text-anchor="middle" font-family="Inter, sans-serif" font-size="9" fill="#111" opacity="0.6" letter-spacing="2">DARK · CHOCOLATE · ORANGE PEEL</text>

    
    <g transform="translate(120 250)" fill="#111">
      <ellipse cx="0" cy="0" rx="6" ry="14" transform="rotate(-30)"></ellipse>
      <ellipse cx="-14" cy="6" rx="6" ry="12" transform="rotate(-70 -14 6)"></ellipse>
      <ellipse cx="14" cy="6" rx="6" ry="12" transform="rotate(50 14 6)"></ellipse>
      <ellipse cx="-22" cy="22" rx="5" ry="10" transform="rotate(-110 -22 22)"></ellipse>
      <ellipse cx="22" cy="22" rx="5" ry="10" transform="rotate(110 22 22)"></ellipse>
      <ellipse cx="0" cy="34" rx="6" ry="12"></ellipse>
    </g>

    
    <line x1="22" y1="304" x2="218" y2="304" stroke="#111"></line>
    <text x="22" y="324" font-family="Inter, sans-serif" font-size="9" fill="#111" letter-spacing="2">ROAST · DARK</text>
    <text x="218" y="324" text-anchor="end" font-family="Inter, sans-serif" font-size="9" fill="#111" letter-spacing="2">12 OZ · WHOLE BEAN</text>

    <text x="120" y="370" text-anchor="middle" font-family="Inter, sans-serif" font-size="10" fill="#111" opacity="0.55">roasted in Brooklyn, every Thursday.</text>
  </g>

  
  <text x="60" y="100" font-family="Instrument Serif, serif" font-size="38" font-style="italic" fill="#faf6ea">Wildwood</text>
  <text x="60" y="124" font-family="Inter, sans-serif" font-size="12" fill="#faf6ea" opacity="0.85">a friend&#39;s espresso bar.</text>

  
  <polyline points="60,440 100,420 140,440 180,420 220,440 260,420" fill="none" stroke="#FDFE53" stroke-width="3" stroke-linecap="round" stroke-linejoin="round"></polyline>
</svg>